<svg xmlns="http://www.w3.org/2000/svg" xmlns:xlink="http://www.w3.org/1999/xlink" width="700" zoomAndPan="magnify" viewBox="0 0 525 525.000007" height="700" preserveAspectRatio="xMidYMid meet" version="1.0"><defs><g/><clipPath id="df7d25531e"><path d="M 311 220 L 324.574219 220 L 324.574219 230 L 311 230 Z M 311 220 " clip-rule="nonzero"/></clipPath><clipPath id="51f3eba787"><path d="M 252 158.8125 L 273 158.8125 L 273 198 L 252 198 Z M 252 158.8125 " clip-rule="nonzero"/></clipPath><clipPath id="f442310711"><path d="M 200.308594 220 L 214 220 L 214 230 L 200.308594 230 Z M 200.308594 220 " clip-rule="nonzero"/></clipPath></defs><path fill="#855e3e" d="M 266.765625 255.53125 C 275.578125 239.925781 291.070312 232.59375 291.742188 232.28125 C 278.070312 237.515625 268.753906 243.824219 262.5 250.390625 C 262.039062 249.90625 261.566406 249.429688 261.074219 248.949219 C 254.855469 242.902344 245.925781 237.132812 233.253906 232.28125 C 233.898438 232.578125 248.144531 239.320312 257.089844 253.609375 C 257.480469 254.234375 257.863281 254.875 258.234375 255.53125 C 244.28125 275.019531 253.726562 294.949219 253.726562 294.949219 L 271.277344 294.949219 C 271.277344 294.949219 280.101562 276.324219 268.082031 257.476562 C 266.429688 260.582031 265.164062 263.84375 264.289062 267.253906 C 264.011719 268.34375 263.777344 269.445312 263.582031 270.558594 C 264.445312 275.863281 264.445312 281.164062 263.582031 286.464844 C 263.3125 288.195312 262.953125 289.972656 262.5 291.792969 C 259.992188 281.761719 260.417969 273.101562 262.5 265.730469 C 263.511719 262.160156 264.933594 258.757812 266.765625 255.53125 Z M 266.765625 255.53125 " fill-opacity="1" fill-rule="nonzero"/><path fill="#855e3e" d="M 272.359375 226.144531 C 272.511719 226.792969 272.601562 227.449219 272.625 228.113281 C 272.648438 228.777344 272.605469 229.4375 272.5 230.09375 C 272.394531 230.753906 272.222656 231.390625 271.992188 232.015625 C 271.757812 232.636719 271.46875 233.234375 271.117188 233.800781 C 270.769531 234.363281 270.367188 234.890625 269.914062 235.378906 C 269.460938 235.863281 268.964844 236.304688 268.421875 236.691406 C 267.882812 237.082031 267.3125 237.414062 266.707031 237.691406 C 266.101562 237.964844 265.472656 238.179688 264.828125 238.332031 C 264.179688 238.488281 263.523438 238.574219 262.859375 238.597656 C 262.195312 238.621094 261.53125 238.582031 260.875 238.472656 C 260.21875 238.367188 259.578125 238.199219 258.957031 237.964844 C 258.332031 237.730469 257.738281 237.441406 257.171875 237.089844 C 256.605469 236.742188 256.078125 236.339844 255.59375 235.886719 C 255.105469 235.433594 254.667969 234.9375 254.277344 234.398438 C 253.890625 233.855469 253.558594 233.285156 253.28125 232.679688 C 253.003906 232.074219 252.789062 231.449219 252.636719 230.800781 C 252.484375 230.152344 252.398438 229.496094 252.371094 228.832031 C 252.347656 228.167969 252.390625 227.503906 252.496094 226.847656 C 252.605469 226.191406 252.773438 225.550781 253.007812 224.929688 C 253.238281 224.304688 253.53125 223.710938 253.878906 223.144531 C 254.230469 222.578125 254.632812 222.054688 255.085938 221.566406 C 255.539062 221.078125 256.035156 220.640625 256.574219 220.253906 C 257.113281 219.863281 257.6875 219.53125 258.292969 219.253906 C 258.898438 218.976562 259.523438 218.761719 260.171875 218.609375 C 260.820312 218.457031 261.476562 218.371094 262.140625 218.347656 C 262.804688 218.324219 263.464844 218.363281 264.121094 218.46875 C 264.777344 218.578125 265.417969 218.746094 266.042969 218.980469 C 266.664062 219.210938 267.261719 219.503906 267.824219 219.851562 C 268.390625 220.203125 268.917969 220.605469 269.40625 221.058594 C 269.890625 221.511719 270.328125 222.007812 270.71875 222.546875 C 271.109375 223.085938 271.441406 223.660156 271.71875 224.265625 C 271.992188 224.871094 272.207031 225.496094 272.359375 226.144531 Z M 272.359375 226.144531 " fill-opacity="1" fill-rule="nonzero"/><path fill="#855e3e" d="M 285.972656 208.703125 L 278.5625 222.285156 C 298.15625 218.359375 293.488281 199.453125 293.488281 199.453125 C 275.988281 201.636719 275.75 215 276.382812 220.363281 Z M 285.972656 208.703125 " fill-opacity="1" fill-rule="nonzero"/><path fill="#855e3e" d="M 310.285156 219.445312 C 297.824219 215.109375 293.136719 224.648438 291.742188 228.726562 L 302.117188 223.566406 L 292.550781 230.84375 C 307 234.636719 310.285156 219.445312 310.285156 219.445312 Z M 310.285156 219.445312 " fill-opacity="1" fill-rule="nonzero"/><path fill="#855e3e" d="M 286.976562 242.683594 L 297.902344 246.535156 L 286.019531 244.738281 C 293.355469 257.75 306.546875 249.53125 306.546875 249.53125 C 300.984375 237.566406 290.871094 240.84375 286.976562 242.683594 Z M 286.976562 242.683594 " fill-opacity="1" fill-rule="nonzero"/><path fill="#855e3e" d="M 308.425781 236.9375 L 316.136719 239.839844 L 307.785156 238.394531 C 313.101562 247.804688 322.238281 242.097656 322.238281 242.097656 C 318.179688 233.460938 311.136719 235.671875 308.425781 236.9375 Z M 308.425781 236.9375 " fill-opacity="1" fill-rule="nonzero"/><g clip-path="url(#df7d25531e)"><path fill="#855e3e" d="M 311.179688 227.359375 L 318.738281 224.082031 L 311.734375 228.855469 C 322.097656 231.914062 324.6875 221.460938 324.6875 221.460938 C 315.769531 218.078125 312.246094 224.570312 311.179688 227.359375 Z M 311.179688 227.359375 " fill-opacity="1" fill-rule="nonzero"/></g><path fill="#855e3e" d="M 309.792969 204.691406 C 300.871094 201.3125 297.347656 207.800781 296.28125 210.59375 L 303.839844 207.316406 L 296.835938 212.089844 C 307.199219 215.148438 309.792969 204.691406 309.792969 204.691406 Z M 309.792969 204.691406 " fill-opacity="1" fill-rule="nonzero"/><path fill="#855e3e" d="M 271.136719 197.863281 C 263.246094 203.226562 266.535156 209.835938 268.207031 212.3125 L 269.863281 204.242188 L 269.746094 212.71875 C 278.207031 205.996094 271.136719 197.863281 271.136719 197.863281 Z M 271.136719 197.863281 " fill-opacity="1" fill-rule="nonzero"/><path fill="#855e3e" d="M 319.628906 211.546875 C 319.628906 212.019531 319.539062 212.472656 319.355469 212.910156 C 319.175781 213.347656 318.917969 213.734375 318.585938 214.066406 C 318.25 214.402344 317.867188 214.660156 317.429688 214.839844 C 316.992188 215.019531 316.539062 215.109375 316.066406 215.109375 C 315.59375 215.109375 315.136719 215.019531 314.703125 214.839844 C 314.265625 214.660156 313.878906 214.402344 313.546875 214.066406 C 313.210938 213.734375 312.953125 213.347656 312.773438 212.910156 C 312.59375 212.472656 312.5 212.019531 312.5 211.546875 C 312.5 211.074219 312.59375 210.621094 312.773438 210.183594 C 312.953125 209.746094 313.210938 209.359375 313.546875 209.027344 C 313.878906 208.691406 314.265625 208.4375 314.703125 208.253906 C 315.136719 208.074219 315.59375 207.984375 316.066406 207.984375 C 316.539062 207.984375 316.992188 208.074219 317.429688 208.253906 C 317.867188 208.4375 318.25 208.691406 318.585938 209.027344 C 318.917969 209.359375 319.175781 209.746094 319.355469 210.183594 C 319.539062 210.621094 319.628906 211.074219 319.628906 211.546875 Z M 319.628906 211.546875 " fill-opacity="1" fill-rule="nonzero"/><path fill="#855e3e" d="M 246.4375 222.285156 L 239.027344 208.703125 L 248.617188 220.363281 C 249.25 215 249.011719 201.636719 231.507812 199.453125 C 231.507812 199.453125 226.84375 218.359375 246.4375 222.285156 Z M 246.4375 222.285156 " fill-opacity="1" fill-rule="nonzero"/><g clip-path="url(#51f3eba787)"><path fill="#855e3e" d="M 263.167969 175.660156 L 264.144531 196.996094 C 269.410156 191.457031 280.460938 176.117188 262.488281 158.8125 C 262.488281 158.8125 241.183594 176.28125 260.050781 197.324219 Z M 263.167969 175.660156 " fill-opacity="1" fill-rule="nonzero"/></g><path fill="#855e3e" d="M 245.824219 196.367188 L 239.800781 185.320312 L 247.597656 194.804688 C 248.113281 190.441406 247.917969 179.578125 233.6875 177.800781 C 233.6875 177.800781 229.894531 193.175781 245.824219 196.367188 Z M 245.824219 196.367188 " fill-opacity="1" fill-rule="nonzero"/><path fill="#855e3e" d="M 214.714844 219.445312 C 214.714844 219.445312 218 234.636719 232.445312 230.84375 L 222.882812 223.566406 L 233.253906 228.726562 C 231.859375 224.648438 227.171875 215.109375 214.714844 219.445312 Z M 214.714844 219.445312 " fill-opacity="1" fill-rule="nonzero"/><path fill="#855e3e" d="M 238.023438 242.683594 C 234.125 240.84375 224.015625 237.566406 218.453125 249.53125 C 218.453125 249.53125 231.640625 257.75 238.980469 244.738281 L 227.097656 246.535156 Z M 238.023438 242.683594 " fill-opacity="1" fill-rule="nonzero"/><path fill="#855e3e" d="M 216.570312 236.9375 C 213.863281 235.671875 206.816406 233.460938 202.761719 242.097656 C 202.761719 242.097656 211.898438 247.804688 217.214844 238.394531 L 208.859375 239.839844 Z M 216.570312 236.9375 " fill-opacity="1" fill-rule="nonzero"/><g clip-path="url(#f442310711)"><path fill="#855e3e" d="M 213.265625 228.855469 L 206.261719 224.082031 L 213.816406 227.359375 C 212.75 224.570312 209.230469 218.078125 200.308594 221.460938 C 200.308594 221.460938 202.902344 231.914062 213.265625 228.855469 Z M 213.265625 228.855469 " fill-opacity="1" fill-rule="nonzero"/></g><path fill="#855e3e" d="M 215.207031 204.691406 C 215.207031 204.691406 217.800781 215.148438 228.164062 212.089844 L 221.160156 207.316406 L 228.714844 210.59375 C 227.648438 207.800781 224.128906 201.3125 215.207031 204.691406 Z M 215.207031 204.691406 " fill-opacity="1" fill-rule="nonzero"/><path fill="#855e3e" d="M 228.773438 196.117188 L 220.472656 188.136719 L 229.671875 194.128906 C 228.675781 190.027344 225.039062 180.296875 213.230469 183.363281 C 213.230469 183.363281 215.167969 198.464844 228.773438 196.117188 Z M 228.773438 196.117188 " fill-opacity="1" fill-rule="nonzero"/><path fill="#855e3e" d="M 285.199219 185.320312 L 279.171875 196.367188 C 295.105469 193.175781 291.3125 177.800781 291.3125 177.800781 C 277.078125 179.578125 276.886719 190.441406 277.402344 194.804688 Z M 285.199219 185.320312 " fill-opacity="1" fill-rule="nonzero"/><path fill="#855e3e" d="M 296.226562 196.117188 C 309.828125 198.464844 311.769531 183.363281 311.769531 183.363281 C 299.960938 180.296875 296.320312 190.027344 295.328125 194.128906 L 304.527344 188.136719 Z M 296.226562 196.117188 " fill-opacity="1" fill-rule="nonzero"/><path fill="#855e3e" d="M 255.25 212.71875 L 255.132812 204.242188 L 256.792969 212.3125 C 258.464844 209.835938 261.753906 203.226562 253.863281 197.863281 C 253.863281 197.863281 246.792969 205.996094 255.25 212.71875 Z M 255.25 212.71875 " fill-opacity="1" fill-rule="nonzero"/><path fill="#855e3e" d="M 210.296875 208.253906 C 210.734375 208.4375 211.117188 208.691406 211.453125 209.027344 C 211.785156 209.359375 212.042969 209.746094 212.226562 210.183594 C 212.40625 210.621094 212.496094 211.074219 212.496094 211.546875 C 212.496094 212.019531 212.40625 212.472656 212.226562 212.910156 C 212.042969 213.347656 211.785156 213.734375 211.453125 214.066406 C 211.117188 214.402344 210.734375 214.660156 210.296875 214.839844 C 209.859375 215.019531 209.40625 215.109375 208.933594 215.109375 C 208.460938 215.109375 208.007812 215.019531 207.570312 214.839844 C 207.132812 214.660156 206.746094 214.402344 206.414062 214.066406 C 206.078125 213.734375 205.820312 213.347656 205.640625 212.910156 C 205.460938 212.472656 205.371094 212.019531 205.371094 211.546875 C 205.371094 211.074219 205.460938 210.621094 205.640625 210.183594 C 205.820312 209.746094 206.078125 209.363281 206.414062 209.027344 C 206.746094 208.691406 207.132812 208.4375 207.570312 208.253906 C 208.007812 208.074219 208.460938 207.984375 208.933594 207.984375 C 209.40625 207.984375 209.859375 208.074219 210.296875 208.253906 Z M 210.296875 208.253906 " fill-opacity="1" fill-rule="nonzero"/><path fill="#855e3e" d="M 247.59375 170.949219 C 247.671875 171.417969 247.65625 171.878906 247.546875 172.339844 C 247.4375 172.800781 247.246094 173.222656 246.96875 173.605469 C 246.691406 173.988281 246.351562 174.304688 245.953125 174.550781 C 245.550781 174.800781 245.113281 174.964844 244.648438 175.039062 C 244.183594 175.113281 243.71875 175.097656 243.257812 174.988281 C 242.800781 174.882812 242.378906 174.6875 241.996094 174.414062 C 241.609375 174.136719 241.296875 173.796875 241.046875 173.394531 C 240.796875 172.992188 240.636719 172.558594 240.558594 172.09375 C 240.484375 171.625 240.5 171.164062 240.609375 170.703125 C 240.71875 170.242188 240.910156 169.820312 241.1875 169.4375 C 241.464844 169.054688 241.800781 168.738281 242.203125 168.492188 C 242.605469 168.242188 243.039062 168.078125 243.507812 168.003906 C 243.972656 167.929688 244.4375 167.945312 244.894531 168.054688 C 245.355469 168.160156 245.777344 168.355469 246.160156 168.628906 C 246.542969 168.90625 246.859375 169.246094 247.109375 169.648438 C 247.355469 170.050781 247.519531 170.484375 247.59375 170.949219 Z M 247.59375 170.949219 " fill-opacity="1" fill-rule="nonzero"/><path fill="#855e3e" d="M 284.484375 171.519531 C 284.484375 171.992188 284.394531 172.449219 284.210938 172.886719 C 284.03125 173.320312 283.773438 173.707031 283.441406 174.042969 C 283.105469 174.375 282.71875 174.632812 282.285156 174.8125 C 281.847656 174.996094 281.394531 175.085938 280.921875 175.085938 C 280.449219 175.085938 279.992188 174.996094 279.554688 174.8125 C 279.121094 174.632812 278.734375 174.375 278.402344 174.042969 C 278.066406 173.707031 277.808594 173.320312 277.628906 172.886719 C 277.445312 172.449219 277.355469 171.992188 277.355469 171.519531 C 277.355469 171.050781 277.445312 170.59375 277.628906 170.15625 C 277.808594 169.722656 278.066406 169.335938 278.402344 169 C 278.734375 168.667969 279.121094 168.410156 279.554688 168.230469 C 279.992188 168.046875 280.449219 167.957031 280.921875 167.957031 C 281.394531 167.957031 281.847656 168.046875 282.285156 168.230469 C 282.71875 168.410156 283.105469 168.667969 283.441406 169 C 283.773438 169.335938 284.03125 169.722656 284.210938 170.15625 C 284.394531 170.59375 284.484375 171.050781 284.484375 171.519531 Z M 284.484375 171.519531 " fill-opacity="1" fill-rule="nonzero"/><g fill="#855e3e" fill-opacity="1"><g transform="translate(112.895118, 338.576294)"><g><path d="M 19.375 0 L 0 0 C 0.269531 -0.71875 0.445312 -1.484375 0.53125 -2.296875 C 0.625 -3.117188 0.671875 -4.003906 0.671875 -4.953125 C 0.671875 -5.566406 0.671875 -6.472656 0.671875 -7.671875 C 0.671875 -8.878906 0.671875 -10.226562 0.671875 -11.71875 C 0.671875 -13.207031 0.671875 -14.691406 0.671875 -16.171875 C 0.671875 -17.660156 0.671875 -19.003906 0.671875 -20.203125 C 0.671875 -21.410156 0.671875 -22.320312 0.671875 -22.9375 C 0.671875 -23.882812 0.625 -24.769531 0.53125 -25.59375 C 0.445312 -26.425781 0.269531 -27.191406 0 -27.890625 L 18.296875 -27.890625 L 18.5625 -23.65625 L 18.265625 -23.65625 C 18.160156 -23.925781 17.929688 -24.273438 17.578125 -24.703125 C 17.234375 -25.140625 16.722656 -25.535156 16.046875 -25.890625 C 15.367188 -26.253906 14.46875 -26.4375 13.34375 -26.4375 L 4.953125 -26.4375 L 4.953125 -13.5 L 9.03125 -13.5 C 10.144531 -13.5 11.039062 -13.675781 11.71875 -14.03125 C 12.40625 -14.394531 12.921875 -14.800781 13.265625 -15.25 C 13.617188 -15.695312 13.847656 -16.039062 13.953125 -16.28125 L 14.28125 -16.28125 C 14.28125 -15.125 14.28125 -13.953125 14.28125 -12.765625 C 14.28125 -11.585938 14.28125 -10.421875 14.28125 -9.265625 L 13.953125 -9.265625 C 13.847656 -9.535156 13.617188 -9.882812 13.265625 -10.3125 C 12.921875 -10.75 12.40625 -11.144531 11.71875 -11.5 C 11.039062 -11.863281 10.144531 -12.046875 9.03125 -12.046875 L 4.953125 -12.046875 L 4.953125 -1.453125 L 14.390625 -1.453125 C 15.503906 -1.453125 16.398438 -1.628906 17.078125 -1.984375 C 17.765625 -2.347656 18.28125 -2.753906 18.625 -3.203125 C 18.976562 -3.648438 19.203125 -3.992188 19.296875 -4.234375 L 19.640625 -4.234375 Z M 19.375 0 "/></g></g></g><g fill="#855e3e" fill-opacity="1"><g transform="translate(135.644041, 338.576294)"><g><path d="M 4.90625 0 L 0 0 C 0.269531 -0.71875 0.445312 -1.484375 0.53125 -2.296875 C 0.625 -3.117188 0.671875 -4.003906 0.671875 -4.953125 L 0.671875 -26.84375 L 0.15625 -27.890625 L 4.984375 -27.890625 L 14.28125 -9.890625 L 23.609375 -27.890625 L 28.59375 -27.890625 C 28.320312 -27.191406 28.140625 -26.425781 28.046875 -25.59375 C 27.960938 -24.769531 27.921875 -23.882812 27.921875 -22.9375 C 27.921875 -22.320312 27.921875 -21.410156 27.921875 -20.203125 C 27.921875 -19.003906 27.921875 -17.660156 27.921875 -16.171875 C 27.921875 -14.691406 27.921875 -13.207031 27.921875 -11.71875 C 27.921875 -10.226562 27.921875 -8.878906 27.921875 -7.671875 C 27.921875 -6.472656 27.921875 -5.566406 27.921875 -4.953125 C 27.921875 -4.003906 27.960938 -3.117188 28.046875 -2.296875 C 28.140625 -1.484375 28.320312 -0.71875 28.59375 0 L 22.9375 0 C 23.21875 -0.71875 23.398438 -1.484375 23.484375 -2.296875 C 23.566406 -3.117188 23.609375 -4.003906 23.609375 -4.953125 L 23.609375 -24.734375 L 13.5 -5.203125 L 11.859375 -5.203125 L 2.125 -24.0625 L 2.125 -6.65625 C 2.125 -5.863281 2.195312 -5.03125 2.34375 -4.15625 C 2.488281 -3.289062 2.765625 -2.492188 3.171875 -1.765625 C 3.585938 -1.035156 4.164062 -0.445312 4.90625 0 Z M 4.90625 0 "/></g></g></g><g fill="#855e3e" fill-opacity="1"><g transform="translate(167.314125, 338.576294)"><g><path d="M 15.203125 -27.890625 L 23.5 -4.90625 C 23.800781 -4.09375 24.164062 -3.242188 24.59375 -2.359375 C 25.03125 -1.484375 25.445312 -0.695312 25.84375 0 L 20.1875 0 C 20.1875 -0.644531 20.054688 -1.410156 19.796875 -2.296875 C 19.535156 -3.191406 19.257812 -4.035156 18.96875 -4.828125 C 18.644531 -5.773438 18.269531 -6.609375 17.84375 -7.328125 C 17.425781 -8.046875 16.832031 -8.640625 16.0625 -9.109375 C 15.195312 -9.648438 14.21875 -10.015625 13.125 -10.203125 C 12.03125 -10.390625 10.9375 -10.398438 9.84375 -10.234375 C 8.757812 -10.078125 7.785156 -9.738281 6.921875 -9.21875 C 6.046875 -8.726562 5.394531 -8.113281 4.96875 -7.375 C 4.550781 -6.644531 4.171875 -5.820312 3.828125 -4.90625 C 3.359375 -3.59375 3.707031 -1.957031 4.875 0 L 0 0 C 0.414062 -0.695312 0.828125 -1.484375 1.234375 -2.359375 C 1.648438 -3.242188 2.007812 -4.09375 2.3125 -4.90625 L 10.59375 -27.890625 Z M 17.03125 -10.234375 L 11.375 -25.734375 L 5.765625 -10.234375 C 6.859375 -10.921875 8.066406 -11.378906 9.390625 -11.609375 C 10.710938 -11.847656 12.039062 -11.847656 13.375 -11.609375 C 14.71875 -11.378906 15.9375 -10.921875 17.03125 -10.234375 Z M 17.03125 -10.234375 "/></g></g></g><g fill="#855e3e" fill-opacity="1"><g transform="translate(196.233519, 338.576294)"><g><path d="M 18.40625 -27.890625 L 23.3125 -27.890625 C 23.0625 -27.191406 22.882812 -26.425781 22.78125 -25.59375 C 22.6875 -24.769531 22.640625 -23.882812 22.640625 -22.9375 L 22.640625 0 L 20.71875 0 L 2.125 -25.03125 L 2.125 -6.65625 C 2.125 -5.863281 2.195312 -5.03125 2.34375 -4.15625 C 2.488281 -3.289062 2.765625 -2.492188 3.171875 -1.765625 C 3.585938 -1.035156 4.164062 -0.445312 4.90625 0 L 0 0 C 0.269531 -0.71875 0.445312 -1.484375 0.53125 -2.296875 C 0.625 -3.117188 0.671875 -4.003906 0.671875 -4.953125 L 0.671875 -27 L 0 -27.890625 C 0.894531 -27.890625 1.785156 -27.890625 2.671875 -27.890625 C 3.566406 -27.890625 4.460938 -27.890625 5.359375 -27.890625 L 21.203125 -6.546875 L 21.203125 -21.234375 C 21.203125 -22.023438 21.125 -22.851562 20.96875 -23.71875 C 20.820312 -24.59375 20.550781 -25.398438 20.15625 -26.140625 C 19.757812 -26.890625 19.175781 -27.472656 18.40625 -27.890625 Z M 18.40625 -27.890625 "/></g></g></g><g fill="#855e3e" fill-opacity="1"><g transform="translate(222.662416, 338.576294)"><g/></g></g><g fill="#855e3e" fill-opacity="1"><g transform="translate(235.486566, 338.576294)"><g><path d="M 4.90625 0 L 0 0 C 0.269531 -0.71875 0.445312 -1.484375 0.53125 -2.296875 C 0.625 -3.117188 0.671875 -4.003906 0.671875 -4.953125 L 0.671875 -26.84375 L 0.15625 -27.890625 L 4.984375 -27.890625 L 14.28125 -9.890625 L 23.609375 -27.890625 L 28.59375 -27.890625 C 28.320312 -27.191406 28.140625 -26.425781 28.046875 -25.59375 C 27.960938 -24.769531 27.921875 -23.882812 27.921875 -22.9375 C 27.921875 -22.320312 27.921875 -21.410156 27.921875 -20.203125 C 27.921875 -19.003906 27.921875 -17.660156 27.921875 -16.171875 C 27.921875 -14.691406 27.921875 -13.207031 27.921875 -11.71875 C 27.921875 -10.226562 27.921875 -8.878906 27.921875 -7.671875 C 27.921875 -6.472656 27.921875 -5.566406 27.921875 -4.953125 C 27.921875 -4.003906 27.960938 -3.117188 28.046875 -2.296875 C 28.140625 -1.484375 28.320312 -0.71875 28.59375 0 L 22.9375 0 C 23.21875 -0.71875 23.398438 -1.484375 23.484375 -2.296875 C 23.566406 -3.117188 23.609375 -4.003906 23.609375 -4.953125 L 23.609375 -24.734375 L 13.5 -5.203125 L 11.859375 -5.203125 L 2.125 -24.0625 L 2.125 -6.65625 C 2.125 -5.863281 2.195312 -5.03125 2.34375 -4.15625 C 2.488281 -3.289062 2.765625 -2.492188 3.171875 -1.765625 C 3.585938 -1.035156 4.164062 -0.445312 4.90625 0 Z M 4.90625 0 "/></g></g></g><g fill="#855e3e" fill-opacity="1"><g transform="translate(267.15665, 338.576294)"><g><path d="M 0.671875 -22.9375 C 0.671875 -23.882812 0.625 -24.769531 0.53125 -25.59375 C 0.445312 -26.425781 0.269531 -27.191406 0 -27.890625 L 5.609375 -27.890625 C 5.367188 -27.191406 5.195312 -26.425781 5.09375 -25.59375 C 5 -24.769531 4.953125 -23.882812 4.953125 -22.9375 C 4.953125 -22.320312 4.953125 -21.410156 4.953125 -20.203125 C 4.953125 -19.003906 4.953125 -17.660156 4.953125 -16.171875 C 4.953125 -14.691406 4.953125 -13.207031 4.953125 -11.71875 C 4.953125 -10.226562 4.953125 -8.878906 4.953125 -7.671875 C 4.953125 -6.472656 4.953125 -5.566406 4.953125 -4.953125 C 4.953125 -4.003906 5 -3.117188 5.09375 -2.296875 C 5.195312 -1.484375 5.367188 -0.71875 5.609375 0 L 0 0 C 0.269531 -0.71875 0.445312 -1.484375 0.53125 -2.296875 C 0.625 -3.117188 0.671875 -4.003906 0.671875 -4.953125 Z M 0.671875 -22.9375 "/></g></g></g><g fill="#855e3e" fill-opacity="1"><g transform="translate(275.966288, 338.576294)"><g><path d="M 18.40625 -27.890625 L 23.3125 -27.890625 C 23.0625 -27.191406 22.882812 -26.425781 22.78125 -25.59375 C 22.6875 -24.769531 22.640625 -23.882812 22.640625 -22.9375 L 22.640625 0 L 20.71875 0 L 2.125 -25.03125 L 2.125 -6.65625 C 2.125 -5.863281 2.195312 -5.03125 2.34375 -4.15625 C 2.488281 -3.289062 2.765625 -2.492188 3.171875 -1.765625 C 3.585938 -1.035156 4.164062 -0.445312 4.90625 0 L 0 0 C 0.269531 -0.71875 0.445312 -1.484375 0.53125 -2.296875 C 0.625 -3.117188 0.671875 -4.003906 0.671875 -4.953125 L 0.671875 -27 L 0 -27.890625 C 0.894531 -27.890625 1.785156 -27.890625 2.671875 -27.890625 C 3.566406 -27.890625 4.460938 -27.890625 5.359375 -27.890625 L 21.203125 -6.546875 L 21.203125 -21.234375 C 21.203125 -22.023438 21.125 -22.851562 20.96875 -23.71875 C 20.820312 -24.59375 20.550781 -25.398438 20.15625 -26.140625 C 19.757812 -26.890625 19.175781 -27.472656 18.40625 -27.890625 Z M 18.40625 -27.890625 "/></g></g></g><g fill="#855e3e" fill-opacity="1"><g transform="translate(302.395185, 338.576294)"><g><path d="M 15.203125 -27.890625 L 23.5 -4.90625 C 23.800781 -4.09375 24.164062 -3.242188 24.59375 -2.359375 C 25.03125 -1.484375 25.445312 -0.695312 25.84375 0 L 20.1875 0 C 20.1875 -0.644531 20.054688 -1.410156 19.796875 -2.296875 C 19.535156 -3.191406 19.257812 -4.035156 18.96875 -4.828125 C 18.644531 -5.773438 18.269531 -6.609375 17.84375 -7.328125 C 17.425781 -8.046875 16.832031 -8.640625 16.0625 -9.109375 C 15.195312 -9.648438 14.21875 -10.015625 13.125 -10.203125 C 12.03125 -10.390625 10.9375 -10.398438 9.84375 -10.234375 C 8.757812 -10.078125 7.785156 -9.738281 6.921875 -9.21875 C 6.046875 -8.726562 5.394531 -8.113281 4.96875 -7.375 C 4.550781 -6.644531 4.171875 -5.820312 3.828125 -4.90625 C 3.359375 -3.59375 3.707031 -1.957031 4.875 0 L 0 0 C 0.414062 -0.695312 0.828125 -1.484375 1.234375 -2.359375 C 1.648438 -3.242188 2.007812 -4.09375 2.3125 -4.90625 L 10.59375 -27.890625 Z M 17.03125 -10.234375 L 11.375 -25.734375 L 5.765625 -10.234375 C 6.859375 -10.921875 8.066406 -11.378906 9.390625 -11.609375 C 10.710938 -11.847656 12.039062 -11.847656 13.375 -11.609375 C 14.71875 -11.378906 15.9375 -10.921875 17.03125 -10.234375 Z M 17.03125 -10.234375 "/></g></g></g><g fill="#855e3e" fill-opacity="1"><g transform="translate(331.314579, 338.576294)"><g><path d="M 2.15625 -4.3125 C 2.75 -4.3125 3.25 -4.097656 3.65625 -3.671875 C 4.070312 -3.253906 4.289062 -2.75 4.3125 -2.15625 C 4.332031 -1.65625 4.191406 -1.148438 3.890625 -0.640625 C 3.597656 -0.140625 3.25 0.316406 2.84375 0.734375 C 2.4375 1.160156 2.046875 1.5 1.671875 1.75 L 0.703125 0.5625 C 0.703125 0.5625 0.859375 0.507812 1.171875 0.40625 C 1.484375 0.3125 1.820312 0.175781 2.1875 0 C 1.59375 0.0195312 1.078125 -0.175781 0.640625 -0.59375 C 0.210938 -1.019531 0 -1.539062 0 -2.15625 C 0 -2.75 0.207031 -3.253906 0.625 -3.671875 C 1.050781 -4.097656 1.5625 -4.3125 2.15625 -4.3125 Z M 2.15625 -4.3125 "/></g></g></g><g fill="#855e3e" fill-opacity="1"><g transform="translate(338.786036, 338.576294)"><g/></g></g><g fill="#855e3e" fill-opacity="1"><g transform="translate(351.610185, 338.576294)"><g><path d="M 4.90625 0 L 0 0 C 0.269531 -0.71875 0.445312 -1.484375 0.53125 -2.296875 C 0.625 -3.117188 0.671875 -4.003906 0.671875 -4.953125 L 0.671875 -26.84375 L 0.15625 -27.890625 L 4.984375 -27.890625 L 14.28125 -9.890625 L 23.609375 -27.890625 L 28.59375 -27.890625 C 28.320312 -27.191406 28.140625 -26.425781 28.046875 -25.59375 C 27.960938 -24.769531 27.921875 -23.882812 27.921875 -22.9375 C 27.921875 -22.320312 27.921875 -21.410156 27.921875 -20.203125 C 27.921875 -19.003906 27.921875 -17.660156 27.921875 -16.171875 C 27.921875 -14.691406 27.921875 -13.207031 27.921875 -11.71875 C 27.921875 -10.226562 27.921875 -8.878906 27.921875 -7.671875 C 27.921875 -6.472656 27.921875 -5.566406 27.921875 -4.953125 C 27.921875 -4.003906 27.960938 -3.117188 28.046875 -2.296875 C 28.140625 -1.484375 28.320312 -0.71875 28.59375 0 L 22.9375 0 C 23.21875 -0.71875 23.398438 -1.484375 23.484375 -2.296875 C 23.566406 -3.117188 23.609375 -4.003906 23.609375 -4.953125 L 23.609375 -24.734375 L 13.5 -5.203125 L 11.859375 -5.203125 L 2.125 -24.0625 L 2.125 -6.65625 C 2.125 -5.863281 2.195312 -5.03125 2.34375 -4.15625 C 2.488281 -3.289062 2.765625 -2.492188 3.171875 -1.765625 C 3.585938 -1.035156 4.164062 -0.445312 4.90625 0 Z M 4.90625 0 "/></g></g></g><g fill="#855e3e" fill-opacity="1"><g transform="translate(383.280285, 338.576294)"><g><path d="M 0 0 C 0.269531 -0.71875 0.445312 -1.484375 0.53125 -2.296875 C 0.625 -3.117188 0.671875 -4.003906 0.671875 -4.953125 C 0.671875 -5.566406 0.671875 -6.472656 0.671875 -7.671875 C 0.671875 -8.878906 0.671875 -10.226562 0.671875 -11.71875 C 0.671875 -13.207031 0.671875 -14.691406 0.671875 -16.171875 C 0.671875 -17.660156 0.671875 -19.003906 0.671875 -20.203125 C 0.671875 -21.410156 0.671875 -22.320312 0.671875 -22.9375 C 0.671875 -23.882812 0.625 -24.769531 0.53125 -25.59375 C 0.445312 -26.425781 0.269531 -27.191406 0 -27.890625 C 1.832031 -27.890625 3.671875 -27.890625 5.515625 -27.890625 C 7.367188 -27.890625 9.210938 -27.890625 11.046875 -27.890625 C 12.984375 -27.890625 14.820312 -27.59375 16.5625 -27 C 18.3125 -26.40625 19.867188 -25.519531 21.234375 -24.34375 C 22.597656 -23.164062 23.675781 -21.707031 24.46875 -19.96875 C 25.257812 -18.226562 25.65625 -16.222656 25.65625 -13.953125 C 25.65625 -11.671875 25.257812 -9.660156 24.46875 -7.921875 C 23.675781 -6.179688 22.597656 -4.722656 21.234375 -3.546875 C 19.867188 -2.367188 18.3125 -1.484375 16.5625 -0.890625 C 14.820312 -0.296875 12.984375 0 11.046875 0 C 9.210938 0 7.367188 0 5.515625 0 C 3.671875 0 1.832031 0 0 0 Z M 4.953125 -26.4375 L 4.953125 -1.453125 L 11.046875 -1.453125 C 12.359375 -1.453125 13.628906 -1.742188 14.859375 -2.328125 C 16.085938 -2.910156 17.179688 -3.738281 18.140625 -4.8125 C 19.109375 -5.894531 19.867188 -7.203125 20.421875 -8.734375 C 20.984375 -10.273438 21.265625 -12.015625 21.265625 -13.953125 C 21.265625 -15.878906 20.984375 -17.609375 20.421875 -19.140625 C 19.867188 -20.679688 19.109375 -21.988281 18.140625 -23.0625 C 17.179688 -24.144531 16.085938 -24.976562 14.859375 -25.5625 C 13.628906 -26.144531 12.359375 -26.4375 11.046875 -26.4375 Z M 4.953125 -26.4375 "/></g></g></g><g fill="#855e3e" fill-opacity="1"><g transform="translate(165.330332, 361.402367)"><g><path d="M 12.859375 -8.375 L 10.046875 0 L 9.109375 0 L 6.65625 -7.140625 L 4.1875 0 L 3.265625 0 L 0.4375 -8.375 L 1.359375 -8.375 L 3.765625 -1.171875 L 6.265625 -8.375 L 7.09375 -8.375 L 9.5625 -1.140625 L 12.015625 -8.375 Z M 12.859375 -8.375 "/></g></g></g><g fill="#855e3e" fill-opacity="1"><g transform="translate(181.863354, 361.402367)"><g><path d="M 7.28125 -0.765625 L 7.28125 0 L 1.359375 0 L 1.359375 -8.375 L 7.109375 -8.375 L 7.109375 -7.609375 L 2.25 -7.609375 L 2.25 -4.625 L 6.578125 -4.625 L 6.578125 -3.875 L 2.25 -3.875 L 2.25 -0.765625 Z M 7.28125 -0.765625 "/></g></g></g><g fill="#855e3e" fill-opacity="1"><g transform="translate(193.10485, 361.402367)"><g><path d="M 1.359375 -8.375 L 2.25 -8.375 L 2.25 -0.765625 L 6.9375 -0.765625 L 6.9375 0 L 1.359375 0 Z M 1.359375 -8.375 "/></g></g></g><g fill="#855e3e" fill-opacity="1"><g transform="translate(203.388604, 361.402367)"><g><path d="M 1.359375 -8.375 L 2.25 -8.375 L 2.25 -0.765625 L 6.9375 -0.765625 L 6.9375 0 L 1.359375 0 Z M 1.359375 -8.375 "/></g></g></g><g fill="#855e3e" fill-opacity="1"><g transform="translate(213.672355, 361.402367)"><g><path d="M 8.359375 -8.375 L 8.359375 0 L 7.640625 0 L 2.25 -6.796875 L 2.25 0 L 1.359375 0 L 1.359375 -8.375 L 2.09375 -8.375 L 7.5 -1.578125 L 7.5 -8.375 Z M 8.359375 -8.375 "/></g></g></g><g fill="#855e3e" fill-opacity="1"><g transform="translate(226.637787, 361.402367)"><g><path d="M 7.28125 -0.765625 L 7.28125 0 L 1.359375 0 L 1.359375 -8.375 L 7.109375 -8.375 L 7.109375 -7.609375 L 2.25 -7.609375 L 2.25 -4.625 L 6.578125 -4.625 L 6.578125 -3.875 L 2.25 -3.875 L 2.25 -0.765625 Z M 7.28125 -0.765625 "/></g></g></g><g fill="#855e3e" fill-opacity="1"><g transform="translate(237.879281, 361.402367)"><g><path d="M 3.671875 0.078125 C 3.046875 0.078125 2.445312 -0.0195312 1.875 -0.21875 C 1.3125 -0.425781 0.875 -0.691406 0.5625 -1.015625 L 0.90625 -1.703125 C 1.207031 -1.398438 1.609375 -1.15625 2.109375 -0.96875 C 2.617188 -0.78125 3.140625 -0.6875 3.671875 -0.6875 C 4.421875 -0.6875 4.984375 -0.820312 5.359375 -1.09375 C 5.734375 -1.375 5.921875 -1.734375 5.921875 -2.171875 C 5.921875 -2.503906 5.816406 -2.769531 5.609375 -2.96875 C 5.410156 -3.164062 5.160156 -3.316406 4.859375 -3.421875 C 4.566406 -3.535156 4.160156 -3.65625 3.640625 -3.78125 C 3.003906 -3.9375 2.5 -4.085938 2.125 -4.234375 C 1.75 -4.390625 1.425781 -4.617188 1.15625 -4.921875 C 0.894531 -5.222656 0.765625 -5.632812 0.765625 -6.15625 C 0.765625 -6.570312 0.875 -6.953125 1.09375 -7.296875 C 1.320312 -7.648438 1.664062 -7.929688 2.125 -8.140625 C 2.59375 -8.347656 3.171875 -8.453125 3.859375 -8.453125 C 4.335938 -8.453125 4.804688 -8.382812 5.265625 -8.25 C 5.722656 -8.125 6.117188 -7.941406 6.453125 -7.703125 L 6.15625 -7 C 5.800781 -7.226562 5.421875 -7.398438 5.015625 -7.515625 C 4.617188 -7.640625 4.234375 -7.703125 3.859375 -7.703125 C 3.117188 -7.703125 2.5625 -7.554688 2.1875 -7.265625 C 1.820312 -6.984375 1.640625 -6.617188 1.640625 -6.171875 C 1.640625 -5.835938 1.738281 -5.566406 1.9375 -5.359375 C 2.144531 -5.160156 2.398438 -5.003906 2.703125 -4.890625 C 3.015625 -4.785156 3.429688 -4.671875 3.953125 -4.546875 C 4.566406 -4.398438 5.0625 -4.25 5.4375 -4.09375 C 5.820312 -3.945312 6.144531 -3.722656 6.40625 -3.421875 C 6.664062 -3.128906 6.796875 -2.726562 6.796875 -2.21875 C 6.796875 -1.789062 6.679688 -1.398438 6.453125 -1.046875 C 6.222656 -0.703125 5.875 -0.425781 5.40625 -0.21875 C 4.9375 -0.0195312 4.359375 0.078125 3.671875 0.078125 Z M 3.671875 0.078125 "/></g></g></g><g fill="#855e3e" fill-opacity="1"><g transform="translate(248.474292, 361.402367)"><g><path d="M 3.671875 0.078125 C 3.046875 0.078125 2.445312 -0.0195312 1.875 -0.21875 C 1.3125 -0.425781 0.875 -0.691406 0.5625 -1.015625 L 0.90625 -1.703125 C 1.207031 -1.398438 1.609375 -1.15625 2.109375 -0.96875 C 2.617188 -0.78125 3.140625 -0.6875 3.671875 -0.6875 C 4.421875 -0.6875 4.984375 -0.820312 5.359375 -1.09375 C 5.734375 -1.375 5.921875 -1.734375 5.921875 -2.171875 C 5.921875 -2.503906 5.816406 -2.769531 5.609375 -2.96875 C 5.410156 -3.164062 5.160156 -3.316406 4.859375 -3.421875 C 4.566406 -3.535156 4.160156 -3.65625 3.640625 -3.78125 C 3.003906 -3.9375 2.5 -4.085938 2.125 -4.234375 C 1.75 -4.390625 1.425781 -4.617188 1.15625 -4.921875 C 0.894531 -5.222656 0.765625 -5.632812 0.765625 -6.15625 C 0.765625 -6.570312 0.875 -6.953125 1.09375 -7.296875 C 1.320312 -7.648438 1.664062 -7.929688 2.125 -8.140625 C 2.59375 -8.347656 3.171875 -8.453125 3.859375 -8.453125 C 4.335938 -8.453125 4.804688 -8.382812 5.265625 -8.25 C 5.722656 -8.125 6.117188 -7.941406 6.453125 -7.703125 L 6.15625 -7 C 5.800781 -7.226562 5.421875 -7.398438 5.015625 -7.515625 C 4.617188 -7.640625 4.234375 -7.703125 3.859375 -7.703125 C 3.117188 -7.703125 2.5625 -7.554688 2.1875 -7.265625 C 1.820312 -6.984375 1.640625 -6.617188 1.640625 -6.171875 C 1.640625 -5.835938 1.738281 -5.566406 1.9375 -5.359375 C 2.144531 -5.160156 2.398438 -5.003906 2.703125 -4.890625 C 3.015625 -4.785156 3.429688 -4.671875 3.953125 -4.546875 C 4.566406 -4.398438 5.0625 -4.25 5.4375 -4.09375 C 5.820312 -3.945312 6.144531 -3.722656 6.40625 -3.421875 C 6.664062 -3.128906 6.796875 -2.726562 6.796875 -2.21875 C 6.796875 -1.789062 6.679688 -1.398438 6.453125 -1.046875 C 6.222656 -0.703125 5.875 -0.425781 5.40625 -0.21875 C 4.9375 -0.0195312 4.359375 0.078125 3.671875 0.078125 Z M 3.671875 0.078125 "/></g></g></g><g fill="#855e3e" fill-opacity="1"><g transform="translate(259.069304, 361.402367)"><g/></g></g><g fill="#855e3e" fill-opacity="1"><g transform="translate(265.438279, 361.402367)"><g><path d="M 7.359375 0.125 L 6.203125 -1.0625 C 5.492188 -0.300781 4.5625 0.078125 3.40625 0.078125 C 2.851562 0.078125 2.363281 -0.0078125 1.9375 -0.1875 C 1.507812 -0.375 1.175781 -0.628906 0.9375 -0.953125 C 0.707031 -1.273438 0.59375 -1.644531 0.59375 -2.0625 C 0.59375 -2.5625 0.75 -3.007812 1.0625 -3.40625 C 1.382812 -3.8125 1.925781 -4.234375 2.6875 -4.671875 C 2.289062 -5.085938 2.015625 -5.4375 1.859375 -5.71875 C 1.710938 -6.007812 1.640625 -6.320312 1.640625 -6.65625 C 1.640625 -7.1875 1.828125 -7.613281 2.203125 -7.9375 C 2.585938 -8.269531 3.109375 -8.4375 3.765625 -8.4375 C 4.359375 -8.4375 4.828125 -8.285156 5.171875 -7.984375 C 5.523438 -7.691406 5.703125 -7.289062 5.703125 -6.78125 C 5.703125 -6.363281 5.5625 -5.988281 5.28125 -5.65625 C 5.007812 -5.320312 4.53125 -4.957031 3.84375 -4.5625 L 6.140625 -2.1875 C 6.390625 -2.644531 6.578125 -3.1875 6.703125 -3.8125 L 7.390625 -3.59375 C 7.242188 -2.84375 7 -2.195312 6.65625 -1.65625 L 7.859375 -0.4375 Z M 3.765625 -7.796875 C 3.347656 -7.796875 3.019531 -7.691406 2.78125 -7.484375 C 2.539062 -7.285156 2.421875 -7.015625 2.421875 -6.671875 C 2.421875 -6.421875 2.484375 -6.179688 2.609375 -5.953125 C 2.742188 -5.734375 3 -5.429688 3.375 -5.046875 C 3.976562 -5.398438 4.394531 -5.695312 4.625 -5.9375 C 4.863281 -6.1875 4.984375 -6.460938 4.984375 -6.765625 C 4.984375 -7.078125 4.875 -7.328125 4.65625 -7.515625 C 4.4375 -7.703125 4.140625 -7.796875 3.765625 -7.796875 Z M 3.453125 -0.640625 C 4.367188 -0.640625 5.117188 -0.953125 5.703125 -1.578125 L 3.171875 -4.171875 C 2.503906 -3.796875 2.046875 -3.457031 1.796875 -3.15625 C 1.546875 -2.851562 1.421875 -2.515625 1.421875 -2.140625 C 1.421875 -1.679688 1.601562 -1.316406 1.96875 -1.046875 C 2.34375 -0.773438 2.835938 -0.640625 3.453125 -0.640625 Z M 3.453125 -0.640625 "/></g></g></g><g fill="#855e3e" fill-opacity="1"><g transform="translate(276.679772, 361.402367)"><g/></g></g><g fill="#855e3e" fill-opacity="1"><g transform="translate(283.048747, 361.402367)"><g><path d="M 10.0625 -8.375 L 10.0625 0 L 9.21875 0 L 9.21875 -6.703125 L 5.921875 -1.0625 L 5.5 -1.0625 L 2.21875 -6.671875 L 2.21875 0 L 1.359375 0 L 1.359375 -8.375 L 2.09375 -8.375 L 5.734375 -2.171875 L 9.328125 -8.375 Z M 10.0625 -8.375 "/></g></g></g><g fill="#855e3e" fill-opacity="1"><g transform="translate(297.71418, 361.402367)"><g><path d="M 7.28125 -0.765625 L 7.28125 0 L 1.359375 0 L 1.359375 -8.375 L 7.109375 -8.375 L 7.109375 -7.609375 L 2.25 -7.609375 L 2.25 -4.625 L 6.578125 -4.625 L 6.578125 -3.875 L 2.25 -3.875 L 2.25 -0.765625 Z M 7.28125 -0.765625 "/></g></g></g><g fill="#855e3e" fill-opacity="1"><g transform="translate(308.955681, 361.402367)"><g><path d="M 1.359375 -8.375 L 4.78125 -8.375 C 5.664062 -8.375 6.445312 -8.195312 7.125 -7.84375 C 7.800781 -7.488281 8.328125 -6.992188 8.703125 -6.359375 C 9.078125 -5.722656 9.265625 -5 9.265625 -4.1875 C 9.265625 -3.375 9.078125 -2.648438 8.703125 -2.015625 C 8.328125 -1.378906 7.800781 -0.882812 7.125 -0.53125 C 6.445312 -0.175781 5.664062 0 4.78125 0 L 1.359375 0 Z M 4.734375 -0.765625 C 5.460938 -0.765625 6.101562 -0.910156 6.65625 -1.203125 C 7.207031 -1.492188 7.632812 -1.894531 7.9375 -2.40625 C 8.238281 -2.925781 8.390625 -3.519531 8.390625 -4.1875 C 8.390625 -4.851562 8.238281 -5.441406 7.9375 -5.953125 C 7.632812 -6.472656 7.207031 -6.878906 6.65625 -7.171875 C 6.101562 -7.460938 5.460938 -7.609375 4.734375 -7.609375 L 2.25 -7.609375 L 2.25 -0.765625 Z M 4.734375 -0.765625 "/></g></g></g><g fill="#855e3e" fill-opacity="1"><g transform="translate(322.076744, 361.402367)"><g><path d="M 1.359375 -8.375 L 2.25 -8.375 L 2.25 0 L 1.359375 0 Z M 1.359375 -8.375 "/></g></g></g><g fill="#855e3e" fill-opacity="1"><g transform="translate(328.924591, 361.402367)"><g><path d="M 5 0.078125 C 4.175781 0.078125 3.429688 -0.101562 2.765625 -0.46875 C 2.097656 -0.84375 1.570312 -1.351562 1.1875 -2 C 0.8125 -2.65625 0.625 -3.382812 0.625 -4.1875 C 0.625 -4.988281 0.8125 -5.710938 1.1875 -6.359375 C 1.570312 -7.015625 2.097656 -7.523438 2.765625 -7.890625 C 3.429688 -8.265625 4.179688 -8.453125 5.015625 -8.453125 C 5.640625 -8.453125 6.210938 -8.347656 6.734375 -8.140625 C 7.265625 -7.929688 7.710938 -7.628906 8.078125 -7.234375 L 7.515625 -6.671875 C 6.859375 -7.328125 6.03125 -7.65625 5.03125 -7.65625 C 4.375 -7.65625 3.773438 -7.503906 3.234375 -7.203125 C 2.691406 -6.898438 2.265625 -6.484375 1.953125 -5.953125 C 1.648438 -5.429688 1.5 -4.84375 1.5 -4.1875 C 1.5 -3.53125 1.648438 -2.9375 1.953125 -2.40625 C 2.265625 -1.882812 2.691406 -1.472656 3.234375 -1.171875 C 3.773438 -0.867188 4.375 -0.71875 5.03125 -0.71875 C 6.039062 -0.71875 6.867188 -1.050781 7.515625 -1.71875 L 8.078125 -1.15625 C 7.710938 -0.757812 7.265625 -0.453125 6.734375 -0.234375 C 6.203125 -0.0234375 5.625 0.078125 5 0.078125 Z M 5 0.078125 "/></g></g></g><g fill="#855e3e" fill-opacity="1"><g transform="translate(340.764684, 361.402367)"><g><path d="M 6.625 -2.234375 L 1.953125 -2.234375 L 0.953125 0 L 0.03125 0 L 3.859375 -8.375 L 4.734375 -8.375 L 8.5625 0 L 7.625 0 Z M 6.296875 -2.953125 L 4.28125 -7.453125 L 2.28125 -2.953125 Z M 6.296875 -2.953125 "/></g></g></g><g fill="#855e3e" fill-opacity="1"><g transform="translate(352.580831, 361.402367)"><g><path d="M 1.359375 -8.375 L 2.25 -8.375 L 2.25 -0.765625 L 6.9375 -0.765625 L 6.9375 0 L 1.359375 0 Z M 1.359375 -8.375 "/></g></g></g></svg>